<mxfile host="app.diagrams.net" modified="2021-09-07T13:50:39.004Z" agent="5.0 (X11)" etag="N-1XqiTRi3dbqbqcy-_K" version="15.1.0" type="github">
  <diagram id="N_1RWmtn3yMVZ1VjyG9t" name="Page-1">
    <mxGraphModel dx="1763" dy="1735" grid="1" gridSize="10" guides="1" tooltips="1" connect="1" arrows="1" fold="1" page="1" pageScale="1" pageWidth="827" pageHeight="1169" math="0" shadow="0">
      <root>
        <mxCell id="0" />
        <mxCell id="1" parent="0" />
        <mxCell id="VC--dTy3cy3imyqkEvTe-7" value="" style="edgeStyle=orthogonalEdgeStyle;rounded=0;orthogonalLoop=1;jettySize=auto;html=1;entryX=0.002;entryY=0.45;entryDx=0;entryDy=0;entryPerimeter=0;exitX=0.5;exitY=0;exitDx=0;exitDy=0;" parent="1" source="VC--dTy3cy3imyqkEvTe-1" target="VC--dTy3cy3imyqkEvTe-3" edge="1">
          <mxGeometry relative="1" as="geometry">
            <mxPoint x="120" y="110" as="targetPoint" />
          </mxGeometry>
        </mxCell>
        <mxCell id="VC--dTy3cy3imyqkEvTe-8" style="edgeStyle=orthogonalEdgeStyle;rounded=0;orthogonalLoop=1;jettySize=auto;html=1;exitX=1;exitY=0.5;exitDx=0;exitDy=0;entryX=0;entryY=0.5;entryDx=0;entryDy=0;" parent="1" source="VC--dTy3cy3imyqkEvTe-1" target="VC--dTy3cy3imyqkEvTe-4" edge="1">
          <mxGeometry relative="1" as="geometry" />
        </mxCell>
        <mxCell id="VC--dTy3cy3imyqkEvTe-9" style="edgeStyle=orthogonalEdgeStyle;rounded=0;orthogonalLoop=1;jettySize=auto;html=1;exitX=0.5;exitY=1;exitDx=0;exitDy=0;entryX=0;entryY=0.5;entryDx=0;entryDy=0;" parent="1" source="VC--dTy3cy3imyqkEvTe-1" target="VC--dTy3cy3imyqkEvTe-5" edge="1">
          <mxGeometry relative="1" as="geometry" />
        </mxCell>
        <mxCell id="VC--dTy3cy3imyqkEvTe-1" value="&lt;div&gt;BitBucket&lt;/div&gt;" style="rounded=0;whiteSpace=wrap;html=1;" parent="1" vertex="1">
          <mxGeometry x="60" y="190" width="120" height="60" as="geometry" />
        </mxCell>
        <mxCell id="VC--dTy3cy3imyqkEvTe-3" value="Flow GCP" style="rounded=1;whiteSpace=wrap;html=1;" parent="1" vertex="1">
          <mxGeometry x="210" width="460" height="120" as="geometry" />
        </mxCell>
        <mxCell id="VC--dTy3cy3imyqkEvTe-4" value="Flow AWS" style="rounded=1;whiteSpace=wrap;html=1;" parent="1" vertex="1">
          <mxGeometry x="210" y="160" width="460" height="120" as="geometry" />
        </mxCell>
        <mxCell id="VC--dTy3cy3imyqkEvTe-5" value="Flow AZURE" style="rounded=1;whiteSpace=wrap;html=1;" parent="1" vertex="1">
          <mxGeometry x="210" y="320" width="460" height="120" as="geometry" />
        </mxCell>
        <mxCell id="VC--dTy3cy3imyqkEvTe-13" value="" style="edgeStyle=orthogonalEdgeStyle;rounded=0;orthogonalLoop=1;jettySize=auto;html=1;" parent="1" source="VC--dTy3cy3imyqkEvTe-12" target="VC--dTy3cy3imyqkEvTe-3" edge="1">
          <mxGeometry relative="1" as="geometry" />
        </mxCell>
        <mxCell id="VC--dTy3cy3imyqkEvTe-19" style="edgeStyle=orthogonalEdgeStyle;rounded=0;orthogonalLoop=1;jettySize=auto;html=1;entryX=1;entryY=0.5;entryDx=0;entryDy=0;" parent="1" source="VC--dTy3cy3imyqkEvTe-12" target="VC--dTy3cy3imyqkEvTe-5" edge="1">
          <mxGeometry relative="1" as="geometry">
            <Array as="points">
              <mxPoint x="705" y="60" />
              <mxPoint x="705" y="380" />
            </Array>
          </mxGeometry>
        </mxCell>
        <mxCell id="VC--dTy3cy3imyqkEvTe-12" value="PersistÃªncia" style="ellipse;whiteSpace=wrap;html=1;strokeWidth=1;gradientColor=none;" parent="1" vertex="1">
          <mxGeometry x="740" y="20" width="120" height="80" as="geometry" />
        </mxCell>
        <mxCell id="VC--dTy3cy3imyqkEvTe-23" value="" style="edgeStyle=orthogonalEdgeStyle;rounded=0;orthogonalLoop=1;jettySize=auto;html=1;" parent="1" source="VC--dTy3cy3imyqkEvTe-21" target="VC--dTy3cy3imyqkEvTe-4" edge="1">
          <mxGeometry relative="1" as="geometry" />
        </mxCell>
        <mxCell id="VC--dTy3cy3imyqkEvTe-21" value="Load Balance" style="ellipse;whiteSpace=wrap;html=1;strokeWidth=1;gradientColor=none;" parent="1" vertex="1">
          <mxGeometry x="740" y="180" width="120" height="80" as="geometry" />
        </mxCell>
        <mxCell id="VC--dTy3cy3imyqkEvTe-24" value="" style="edgeStyle=orthogonalEdgeStyle;rounded=0;orthogonalLoop=1;jettySize=auto;html=1;" parent="1" source="VC--dTy3cy3imyqkEvTe-22" target="VC--dTy3cy3imyqkEvTe-5" edge="1">
          <mxGeometry relative="1" as="geometry" />
        </mxCell>
        <mxCell id="VC--dTy3cy3imyqkEvTe-22" value="Secrets" style="ellipse;whiteSpace=wrap;html=1;strokeWidth=1;gradientColor=none;" parent="1" vertex="1">
          <mxGeometry x="740" y="340" width="120" height="80" as="geometry" />
        </mxCell>
        <mxCell id="VC--dTy3cy3imyqkEvTe-26" style="edgeStyle=orthogonalEdgeStyle;rounded=0;orthogonalLoop=1;jettySize=auto;html=1;entryX=1;entryY=0.5;entryDx=0;entryDy=0;" parent="1" source="VC--dTy3cy3imyqkEvTe-25" target="VC--dTy3cy3imyqkEvTe-21" edge="1">
          <mxGeometry relative="1" as="geometry" />
        </mxCell>
        <mxCell id="VC--dTy3cy3imyqkEvTe-25" value="Users" style="shape=umlActor;verticalLabelPosition=bottom;verticalAlign=top;html=1;outlineConnect=0;strokeColor=#000000;strokeWidth=1;fillColor=#ffffff;gradientColor=none;" parent="1" vertex="1">
          <mxGeometry x="930" y="190" width="30" height="60" as="geometry" />
        </mxCell>
        <mxCell id="2WBCO0oZalLr72JB-t8c-2" value="" style="edgeStyle=orthogonalEdgeStyle;rounded=0;orthogonalLoop=1;jettySize=auto;html=1;" edge="1" parent="1" source="2WBCO0oZalLr72JB-t8c-1" target="VC--dTy3cy3imyqkEvTe-1">
          <mxGeometry relative="1" as="geometry" />
        </mxCell>
        <mxCell id="2WBCO0oZalLr72JB-t8c-1" value="&lt;div&gt;Dev&lt;/div&gt;" style="shape=umlActor;verticalLabelPosition=bottom;verticalAlign=top;html=1;outlineConnect=0;strokeColor=#000000;strokeWidth=1;fillColor=#ffffff;gradientColor=none;" vertex="1" parent="1">
          <mxGeometry x="-50" y="190" width="30" height="60" as="geometry" />
        </mxCell>
        <mxCell id="2WBCO0oZalLr72JB-t8c-3" value="" style="rounded=0;whiteSpace=wrap;html=1;strokeColor=#6D1F00;strokeWidth=1;dashed=1;shadow=0;fontColor=#ffffff;fillColor=none;perimeterSpacing=1;connectable=0;allowArrows=0;pointerEvents=0;" vertex="1" parent="1">
          <mxGeometry x="190" y="-20" width="710" height="480" as="geometry" />
        </mxCell>
      </root>
    </mxGraphModel>
  </diagram>
</mxfile>
